<svg width="30" height="30" viewBox="0 0 30 30" fill="none" xmlns="http://www.w3.org/2000/svg">
<path d="M7.75 27.25C8.57843 27.25 9.25 26.5784 9.25 25.75C9.25 24.9216 8.57843 24.25 7.75 24.25C6.92157 24.25 6.25 24.9216 6.25 25.75C6.25 26.5784 6.92157 27.25 7.75 27.25Z" fill="#191C1F"/>
<path d="M17.5 27.25C18.3284 27.25 19 26.5784 19 25.75C19 24.9216 18.3284 24.25 17.5 24.25C16.6716 24.25 16 24.9216 16 25.75C16 26.5784 16.6716 27.25 17.5 27.25Z" fill="#191C1F"/>
<path d="M4.21562 12.25H21.0344L18.5594 20.9125C18.4711 21.2269 18.282 21.5036 18.0211 21.7C17.7603 21.8965 17.4422 22.0019 17.1156 22H8.13437C7.80783 22.0019 7.4897 21.8965 7.22886 21.7C6.96803 21.5036 6.77893 21.2269 6.69062 20.9125L3.29688 9.04375C3.25203 8.88696 3.1573 8.74905 3.02704 8.65093C2.89677 8.55282 2.73808 8.49983 2.575 8.5H1" stroke="#191C1F" stroke-width="2" stroke-linecap="round" stroke-linejoin="round"/>
<rect x="7.5" y="0.75" width="21.5" height="21.5" rx="10.75" fill="#0261B9"/>
<rect x="7.5" y="0.75" width="21.5" height="21.5" rx="10.75" stroke="white" stroke-width="1.5"/>
<path d="M15.2549 15.5V14.72V14.318C15.2549 13.874 15.3369 13.492 15.5009 13.172C15.6649 12.848 15.8829 12.566 16.1549 12.326C16.4269 12.086 16.7249 11.874 17.0489 11.69C17.3769 11.502 17.7009 11.326 18.0209 11.162C18.3449 10.994 18.6429 10.822 18.9149 10.646C19.1869 10.466 19.4049 10.266 19.5689 10.046C19.7369 9.826 19.8209 9.564 19.8209 9.26C19.8209 8.872 19.6829 8.556 19.4069 8.312C19.1349 8.064 18.7649 7.94 18.2969 7.94C17.8009 7.94 17.3909 8.082 17.0669 8.366C16.7469 8.65 16.5569 9.05 16.4969 9.566H15.0809C15.0889 9.038 15.2149 8.558 15.4589 8.126C15.7029 7.694 16.0649 7.35 16.5449 7.094C17.0249 6.834 17.6229 6.704 18.3389 6.704C18.9589 6.704 19.4929 6.812 19.9409 7.028C20.3929 7.24 20.7409 7.538 20.9849 7.922C21.2329 8.302 21.3569 8.746 21.3569 9.254C21.3569 9.698 21.2749 10.078 21.1109 10.394C20.9509 10.71 20.7369 10.984 20.4689 11.216C20.2049 11.444 19.9129 11.646 19.5929 11.822C19.2769 11.998 18.9589 12.164 18.6389 12.32C18.3229 12.472 18.0309 12.632 17.7629 12.8C17.4989 12.964 17.2849 13.152 17.1209 13.364C16.9609 13.576 16.8809 13.83 16.8809 14.126V14.252H21.3749V15.5H15.2549Z" fill="white"/>
</svg>
