<svg width="16" height="16" viewBox="0 0 16 16" fill="none" xmlns="http://www.w3.org/2000/svg">
<g clip-path="url(#clip0_8_2359)">
<path fill-rule="evenodd" clip-rule="evenodd" d="M8 0C12.4183 0 16 3.58173 16 8C16 12.4183 12.4183 16 8 16C3.58173 16 0 12.4183 0 8C0 3.58173 3.58173 0 8 0Z" fill="#191C1F"/>
<path d="M9.04412 15.933V9.75237H10.7876L11.0187 7.5771H9.04412L9.04705 6.48827C9.04705 5.92091 9.10098 5.61705 9.91641 5.61705H11.0065V3.44141H9.26261C7.16792 3.44141 6.43076 4.4966 6.43076 6.27136V7.57726H5.125V9.75274H6.43076V15.8453C6.93945 15.9466 7.46536 16.0001 8.00382 16.0001C8.35168 16.0001 8.69916 15.9777 9.04412 15.933Z" fill="white"/>
</g>
<defs>
<clipPath id="clip0_8_2359">
<rect width="16" height="16" fill="white"/>
</clipPath>
</defs>
</svg>
