<svg width="16" height="16" viewBox="0 0 16 16" fill="none" xmlns="http://www.w3.org/2000/svg">
<path d="M10.24 8C10.24 8.44303 10.1086 8.87611 9.86249 9.24448C9.61636 9.61284 9.26652 9.89995 8.85721 10.0695C8.4479 10.239 7.99752 10.2834 7.563 10.197C7.12848 10.1105 6.72935 9.89719 6.41608 9.58392C6.10281 9.27065 5.88947 8.87152 5.80304 8.437C5.71661 8.00248 5.76097 7.5521 5.93051 7.14279C6.10005 6.73348 6.38716 6.38364 6.75552 6.13751C7.12389 5.89137 7.55697 5.76 8 5.76C8.59352 5.76185 9.1622 5.99844 9.58188 6.41812C10.0016 6.8378 10.2382 7.40648 10.24 8ZM15 4.92V11.08C15 12.1196 14.587 13.1167 13.8519 13.8519C13.1167 14.587 12.1196 15 11.08 15H4.92C3.88035 15 2.88328 14.587 2.14814 13.8519C1.413 13.1167 1 12.1196 1 11.08V4.92C1 3.88035 1.413 2.88328 2.14814 2.14814C2.88328 1.413 3.88035 1 4.92 1H11.08C12.1196 1 13.1167 1.413 13.8519 2.14814C14.587 2.88328 15 3.88035 15 4.92ZM11.36 8C11.36 7.33545 11.1629 6.68583 10.7937 6.13328C10.4245 5.58073 9.89978 5.15008 9.28582 4.89577C8.67186 4.64145 7.99627 4.57492 7.3445 4.70456C6.69272 4.83421 6.09403 5.15422 5.62412 5.62412C5.15422 6.09403 4.83421 6.69272 4.70456 7.3445C4.57492 7.99627 4.64145 8.67186 4.89577 9.28582C5.15008 9.89978 5.58073 10.4245 6.13328 10.7937C6.68583 11.1629 7.33545 11.36 8 11.36C8.89113 11.36 9.74576 11.006 10.3759 10.3759C11.006 9.74576 11.36 8.89113 11.36 8ZM12.48 4.36C12.48 4.19386 12.4307 4.03146 12.3384 3.89332C12.2461 3.75518 12.1149 3.64752 11.9615 3.58394C11.808 3.52036 11.6391 3.50373 11.4761 3.53614C11.3132 3.56855 11.1635 3.64855 11.046 3.76603C10.9286 3.88351 10.8486 4.03318 10.8161 4.19612C10.7837 4.35907 10.8004 4.52796 10.8639 4.68145C10.9275 4.83494 11.0352 4.96613 11.1733 5.05843C11.3115 5.15073 11.4739 5.2 11.64 5.2C11.8628 5.2 12.0764 5.1115 12.234 4.95397C12.3915 4.79644 12.48 4.58278 12.48 4.36Z" fill="#191C1F"/>
</svg>
